<svg width="14" height="7" viewBox="0 0 14 7" fill="none" xmlns="http://www.w3.org/2000/svg">
<path d="M5.14981 0.795265C5.22216 0.805693 5.28245 0.816121 5.3548 0.82655C6.42796 1.05597 7.52525 2.03624 8.36931 2.62023C8.83957 2.95394 9.23749 2.92265 9.70775 2.6098C10.7086 1.92153 11.7456 1.26454 12.7705 0.586697C13.0478 0.398987 13.3372 0.200848 13.6748 0.451129C14.0486 0.722266 13.8195 1.01426 13.6266 1.2854C12.6137 2.6828 11.6129 4.0802 10.588 5.46717C9.88862 6.42658 8.89986 6.56215 7.83876 5.88431C7.10321 5.4046 6.34356 4.95618 5.62008 4.45562C5.13775 4.12191 4.73984 4.16363 4.28163 4.47648C3.26876 5.16475 2.24382 5.82173 1.21889 6.49958C0.941555 6.68729 0.652162 6.88543 0.314537 6.62472C-0.023088 6.37444 0.157783 6.09287 0.338653 5.83216C1.3877 4.39305 2.42469 2.95394 3.47374 1.51482C3.82343 1.02469 4.47456 0.732694 5.14981 0.795265Z" fill="black"/>
</svg>
